<?xml version="1.0" standalone="no"?>
<!DOCTYPE svg PUBLIC "-//W3C//DTD SVG 20010904//EN"
 "http://www.w3.org/TR/2001/REC-SVG-20010904/DTD/svg10.dtd">
<svg version="1.0" xmlns="http://www.w3.org/2000/svg"
 width="524.000000pt" height="418.000000pt" viewBox="0 0 524.000000 418.000000"
 preserveAspectRatio="xMidYMid meet">
<metadata>
Created by potrace 1.15, written by Peter Selinger 2001-2017
</metadata>
<g transform="translate(0.000000,418.000000) scale(0.100000,-0.100000)"
fill="#000000" stroke="none">
<path d="M1522 4158 c-17 -21 -40 -154 -53 -308 -12 -139 -14 -145 -44 -180
-27 -31 -53 -65 -137 -180 -110 -152 -125 -336 -43 -532 6 -15 2 -17 -32 -14
-22 3 -55 1 -74 -4 -28 -6 -20 -8 43 -9 l76 -1 31 -39 c31 -39 31 -39 8 -45
-12 -3 -33 -6 -47 -6 -35 1 -310 -62 -310 -70 0 -3 44 2 98 11 53 10 149 21
212 24 l115 6 35 -30 35 -30 -55 -1 c-85 -1 -197 -18 -229 -35 -42 -21 -79
-74 -93 -132 l-12 -49 -106 -17 c-268 -43 -421 -142 -519 -338 -79 -157 -111
-319 -111 -561 0 -502 116 -705 470 -822 146 -48 319 -75 570 -87 203 -10 216
-12 229 -33 8 -11 36 -42 61 -67 66 -65 141 -89 277 -89 124 0 147 8 233 84
86 75 121 91 195 90 83 0 126 -18 193 -76 91 -80 122 -93 227 -93 78 0 98 4
150 28 70 33 121 79 176 160 l40 57 157 1 c86 0 192 4 235 8 61 7 89 5 125 -7
31 -10 87 -15 162 -16 100 0 125 4 193 27 191 66 317 199 317 332 0 46 -4 60
-25 80 -36 37 -74 32 -196 -27 -60 -28 -112 -49 -115 -45 -3 3 -1 27 6 54 6
26 14 147 17 269 4 174 2 249 -12 354 -44 347 -139 561 -293 658 -94 60 -222
86 -542 112 -113 9 -145 15 -193 38 l-58 28 47 34 47 33 167 -37 c186 -42 254
-45 158 -8 -32 12 -104 33 -160 47 -57 15 -109 28 -117 31 -11 3 -6 13 16 37
17 18 43 53 58 80 27 46 27 47 78 47 75 0 157 11 157 21 0 5 -43 9 -96 9 -95
0 -95 0 -87 23 4 12 8 69 8 127 -1 102 -2 108 -49 220 -27 63 -62 154 -78 202
l-30 88 45 182 c26 101 48 201 49 222 3 38 1 41 -45 64 -93 49 -195 42 -480
-33 l-108 -29 -92 17 c-111 21 -290 37 -409 37 -80 0 -95 3 -178 40 -172 76
-263 97 -288 68z m74 -80 c17 -13 67 -51 112 -84 l81 -62 -70 -43 c-38 -24
-65 -45 -61 -47 5 -1 58 17 118 41 126 52 183 71 190 64 2 -2 -7 -36 -21 -76
-27 -74 -26 -105 2 -115 25 -10 59 29 102 118 21 45 46 87 55 95 22 18 20 9
-8 -47 -41 -81 -70 -197 -60 -234 11 -39 42 -48 68 -19 9 10 44 72 76 137 32
66 65 128 73 139 29 38 27 8 -3 -57 -48 -103 -50 -168 -4 -168 15 0 90 103
123 168 13 25 28 42 39 42 9 0 82 -20 161 -45 l143 -44 76 51 c113 76 200 118
245 118 l39 0 -7 -37 c-6 -35 -62 -243 -86 -320 l-11 -33 -37 48 c-72 90 -89
95 -42 12 89 -159 151 -295 192 -417 49 -151 55 -221 21 -295 -21 -48 -21 -48
-69 -48 -64 -1 -195 -31 -318 -74 -55 -19 -97 -35 -94 -35 3 -1 41 8 84 19 84
21 346 62 353 55 5 -5 -59 -94 -87 -119 -15 -14 -29 -17 -56 -12 -19 4 -93 3
-163 -1 l-127 -8 90 -6 c121 -8 196 -19 190 -28 -2 -4 -21 -19 -42 -33 -36
-25 -42 -26 -103 -17 -86 12 -235 -3 -288 -30 -22 -11 -51 -34 -65 -51 -22
-25 -33 -30 -71 -30 -33 0 -48 5 -59 20 -12 18 -15 18 -42 4 -21 -11 -55 -14
-129 -12 -89 3 -101 5 -100 21 1 9 -4 17 -12 17 -8 0 -11 -6 -8 -15 5 -13 -7
-15 -87 -12 -117 5 -196 33 -223 77 -20 36 -74 73 -131 90 -21 7 -53 26 -70
41 l-30 29 120 1 c142 1 122 13 -50 30 -102 10 -112 13 -140 40 l-30 30 80 -7
c44 -3 113 -12 153 -18 39 -7 72 -9 72 -6 0 4 -26 17 -57 30 -43 17 -86 24
-165 28 l-108 5 -19 31 c-29 47 -50 131 -57 221 -7 80 -6 83 33 166 30 62 60
106 117 167 42 46 97 111 122 145 l46 62 -7 147 c-4 80 -8 162 -10 182 -4 43
7 46 51 14z m-56 -1382 c56 -26 120 -76 141 -110 24 -39 26 -101 4 -92 -12 4
-15 -5 -15 -47 0 -63 -20 -97 -58 -97 -15 0 -36 -7 -46 -15 -23 -17 -59 -19
-87 -5 -13 8 -26 7 -41 -1 -13 -7 -44 -11 -69 -10 -29 1 -52 -3 -61 -12 -47
-47 -91 -43 -142 13 -38 43 -39 71 -2 102 l21 17 -22 1 c-13 0 -23 -5 -23 -12
0 -6 -2 -9 -5 -6 -22 22 47 65 84 53 15 -4 31 1 53 20 26 22 38 26 68 21 29
-5 41 -1 55 15 17 17 17 19 2 13 -9 -3 -17 -2 -17 4 0 19 -27 20 -141 6 -160
-19 -150 -20 -137 19 21 64 94 117 189 137 65 13 208 6 249 -14z m1165 -208
c11 -13 26 -23 33 -20 16 5 16 -20 0 -36 -9 -9 -9 -12 1 -12 7 0 22 11 33 25
18 24 58 35 58 17 0 -5 26 -5 58 0 114 16 140 -4 144 -109 3 -91 -7 -103 -111
-133 -67 -19 -84 -20 -114 -11 -30 10 -41 9 -73 -8 -35 -19 -39 -19 -66 -3
-26 15 -31 15 -71 0 -36 -13 -48 -14 -73 -3 -51 21 -89 104 -101 218 l-6 60
33 -5 c24 -4 40 0 54 14 48 45 165 48 201 6z m-473 -48 l137 0 6 -37 c21 -128
52 -195 105 -227 31 -18 105 -21 143 -7 18 7 30 5 46 -5 14 -10 29 -13 44 -7
12 4 60 8 107 8 185 1 260 58 260 196 0 43 11 50 78 47 l47 -1 -50 -8 c-36 -5
-20 -6 55 -4 76 2 93 1 60 -5 -33 -6 -19 -7 55 -5 73 2 89 1 60 -5 -32 -7 -25
-8 35 -5 48 2 66 0 50 -5 -23 -7 -23 -8 -3 -9 12 -1 30 -4 40 -7 15 -5 15 -4
3 5 -8 6 -11 11 -7 11 11 0 67 -30 67 -36 0 -3 -5 -2 -12 2 -7 4 -8 3 -4 -5 4
-6 12 -9 17 -6 9 6 62 -45 81 -79 8 -14 7 -17 -4 -11 -7 5 0 -4 15 -19 17 -15
26 -33 23 -41 -7 -20 4 -46 16 -39 6 4 7 -2 3 -16 -5 -14 -3 -20 3 -16 6 4 8
-2 4 -16 -3 -13 -1 -19 5 -15 7 5 9 -1 5 -15 -3 -14 -1 -19 6 -14 8 5 10 -3 6
-26 -4 -25 -3 -29 5 -18 8 11 9 7 4 -19 -4 -24 -3 -32 5 -27 7 4 9 -5 6 -31
-4 -29 -3 -34 5 -23 8 11 9 0 6 -40 -4 -38 -3 -49 4 -35 6 14 8 -4 5 -55 -2
-43 0 -62 4 -46 4 17 7 -54 7 -157 0 -102 -3 -178 -8 -169 -4 9 -6 -9 -4 -41
2 -36 0 -53 -5 -45 -6 8 -8 0 -6 -24 2 -21 0 -34 -6 -31 -5 3 -7 -5 -4 -20 3
-17 1 -24 -5 -20 -6 4 -8 0 -4 -10 3 -10 2 -17 -4 -17 -6 0 -7 -5 -4 -10 3 -5
1 -10 -4 -10 -6 0 -10 -4 -9 -9 2 -5 -6 -17 -17 -25 l-20 -16 20 7 c11 3 17 3
13 -2 -4 -4 -15 -8 -25 -9 -24 -2 -93 -28 -93 -36 0 -8 49 -26 136 -49 94 -24
210 -27 269 -6 22 8 42 15 44 15 11 0 -30 -37 -68 -62 -83 -52 22 -25 140 37
37 19 70 35 73 35 4 0 0 -13 -8 -29 -24 -46 -105 -111 -185 -149 -62 -30 -88
-36 -156 -40 -72 -4 -94 0 -181 28 -54 17 -132 47 -172 66 -69 31 -203 118
-210 136 -2 4 -49 8 -104 8 -90 0 -98 -1 -84 -16 23 -23 19 -63 -10 -101 -14
-18 -23 -37 -19 -42 3 -6 0 -13 -8 -18 -24 -15 -48 -64 -45 -91 3 -24 8 -28
46 -32 l44 -5 -34 -42 c-76 -96 -165 -150 -264 -160 -72 -8 -131 16 -200 78
-30 27 -77 61 -106 76 -46 24 -64 28 -143 28 -81 0 -97 -3 -155 -32 -36 -17
-84 -48 -107 -68 -111 -94 -232 -86 -342 23 -42 43 -43 43 -37 16 l8 -29 -32
30 c-41 39 -95 152 -117 243 l-18 74 -138 -4 c-76 -2 -130 0 -120 4 10 4 -17
7 -59 5 -43 -1 -71 1 -65 6 7 5 -11 7 -41 4 -35 -3 -49 -1 -40 5 9 6 -1 8 -30
5 -28 -3 -40 -2 -35 6 4 7 -4 8 -26 4 -23 -5 -30 -3 -25 5 5 7 -1 9 -19 6 -16
-3 -24 -1 -20 5 4 6 -2 8 -15 5 -12 -4 -22 -2 -22 4 0 6 -7 8 -15 4 -8 -3 -15
-1 -15 5 0 6 -7 9 -15 5 -8 -3 -15 -1 -15 5 0 6 -7 8 -16 5 -10 -4 -13 -2 -8
6 5 8 2 9 -9 5 -10 -3 -17 -2 -17 4 0 6 -5 7 -10 4 -6 -3 -10 -1 -10 6 0 7 -3
9 -7 6 -3 -4 -11 0 -17 9 -6 8 -18 16 -27 17 -8 2 -30 18 -49 38 -19 19 -26
24 -15 10 l20 -26 -27 24 c-15 13 -25 28 -22 32 2 5 -4 17 -15 28 -11 11 -17
22 -14 25 4 3 1 6 -6 6 -7 0 -9 5 -6 10 3 6 2 10 -3 10 -6 0 -8 10 -4 22 3 12
1 19 -5 15 -5 -4 -8 6 -5 25 3 20 1 29 -6 24 -7 -4 -8 9 -5 36 3 31 2 39 -5
29 -7 -10 -9 5 -6 50 2 35 0 54 -4 41 -4 -13 -7 49 -7 138 0 89 3 151 7 138 4
-13 6 4 3 37 -3 43 -1 55 6 45 8 -11 9 -4 5 25 -3 23 -2 34 3 27 11 -17 23 41
14 65 -5 11 -3 14 6 8 10 -6 11 -2 6 15 -4 14 -3 20 3 16 12 -7 25 22 15 36
-3 6 -2 8 4 5 6 -4 15 5 22 19 8 19 8 24 0 18 -26 -16 29 59 75 103 28 27 42
37 31 23 -10 -14 -2 -8 18 13 34 35 56 49 42 27 -4 -6 4 -5 19 1 14 7 23 15
21 19 -3 5 9 13 27 19 38 13 61 13 33 0 -17 -8 -17 -9 5 -4 14 2 39 5 55 6
l30 2 -35 8 c-25 5 -13 7 40 4 53 -3 65 -1 40 4 l-35 8 37 2 c21 0 42 -5 47
-11 55 -69 82 -94 116 -109 51 -24 72 -24 120 1 33 17 45 18 66 9 21 -8 33 -7
57 5 22 11 38 13 61 6 24 -7 48 -3 108 18 l78 27 17 50 c15 47 19 50 55 56
l38 5 -35 6 c-19 2 21 4 90 3 99 -2 112 -1 60 5 -48 6 -31 7 60 4 69 -2 187
-4 262 -4z"/>
<path d="M1614 3465 c-39 -7 -89 -22 -110 -33 -39 -20 -184 -161 -184 -179 0
-5 14 -7 31 -5 36 5 49 -8 49 -53 0 -16 11 -53 24 -82 75 -161 345 -195 465
-58 49 56 65 100 64 180 0 103 -40 188 -106 222 -40 20 -150 24 -233 8z"/>
<path d="M2172 3352 c-29 -62 -32 -78 -32 -163 0 -121 20 -196 57 -210 44 -16
48 3 17 78 -26 60 -29 79 -28 168 1 55 7 120 13 144 18 65 8 59 -27 -17z"/>
<path d="M2302 3409 c-21 -6 -42 -24 -60 -51 -25 -39 -27 -49 -26 -137 1 -53
7 -115 13 -139 38 -138 277 -221 421 -147 53 27 106 89 125 144 18 55 20 56
61 41 15 -6 29 -9 31 -7 2 2 -12 27 -31 56 -19 28 -45 69 -56 90 -29 51 -86
86 -199 122 -102 33 -225 45 -279 28z"/>
<path d="M1917 2934 c-10 -10 31 -62 53 -69 16 -5 20 -15 20 -55 l0 -48 -85
-44 c-47 -23 -85 -47 -85 -52 0 -18 67 6 122 43 32 22 60 35 64 30 15 -24 127
-70 187 -75 l62 -5 -40 19 c-22 10 -53 22 -70 26 -34 8 -106 48 -129 72 -18
17 -22 84 -5 84 6 0 23 13 39 29 l29 28 -25 12 c-27 12 -126 15 -137 5z"/>
<path d="M1093 1853 c-29 -4 -33 -8 -33 -34 0 -16 -4 -29 -10 -29 -5 0 -10
-11 -10 -25 0 -14 5 -25 10 -25 6 0 10 -22 10 -50 0 -91 40 -129 115 -109 42
12 49 48 13 64 -18 8 -24 20 -26 53 -3 39 -1 42 22 42 21 0 26 5 26 25 0 20
-5 25 -25 25 -22 0 -25 4 -25 35 0 37 2 36 -67 28z"/>
<path d="M2633 1853 c-29 -4 -33 -8 -33 -34 0 -16 -4 -29 -10 -29 -5 0 -10
-11 -10 -25 0 -14 5 -25 10 -25 6 0 10 -22 10 -50 0 -91 40 -129 115 -109 42
12 49 48 13 64 -18 8 -24 20 -26 53 -3 39 -1 42 22 42 21 0 26 5 26 25 0 20
-5 25 -25 25 -22 0 -25 4 -25 35 0 37 2 36 -67 28z"/>
<path d="M900 1715 l0 -135 55 0 55 0 0 135 0 135 -55 0 -55 0 0 -135z"/>
<path d="M1723 1780 c-41 -25 -53 -48 -53 -105 0 -62 31 -95 91 -95 25 0 50 7
61 17 17 15 19 15 36 0 10 -10 28 -17 40 -17 21 0 22 4 22 105 l0 105 -29 0
c-17 0 -33 -4 -36 -10 -4 -6 -17 -4 -35 5 -38 20 -59 19 -97 -5z"/>
<path d="M2010 1793 c-57 -21 -67 -80 -20 -115 17 -12 30 -26 30 -31 0 -5 -13
-7 -30 -3 -28 5 -30 3 -30 -24 0 -36 8 -41 69 -42 59 0 89 14 97 47 9 37 -5
65 -42 82 -44 22 -44 37 1 30 33 -5 35 -4 35 23 0 16 -7 30 -16 34 -19 7 -73
7 -94 -1z"/>
<path d="M2300 1793 c-8 -3 -22 -12 -31 -20 -14 -12 -18 -11 -29 2 -7 8 -25
15 -41 15 l-29 0 0 -105 0 -105 50 0 50 0 0 74 c0 79 8 96 34 70 11 -11 16
-34 16 -80 l0 -64 51 0 51 0 -4 90 c-2 64 -7 94 -19 105 -17 17 -75 28 -99 18z"/>
<path d="M3000 1793 c-8 -3 -22 -12 -31 -20 -14 -12 -18 -11 -29 2 -7 8 -25
15 -41 15 l-29 0 0 -105 0 -105 50 0 50 0 0 73 c0 79 5 93 27 76 8 -8 13 -35
13 -80 l0 -69 45 0 45 0 0 64 c0 79 7 101 26 85 9 -8 14 -34 14 -80 l0 -69 50
0 50 0 0 85 c0 78 -2 88 -25 110 -28 29 -61 32 -93 9 -20 -14 -24 -14 -44 0
-23 16 -50 19 -78 9z"/>
<path d="M3350 1789 c-59 -24 -90 -89 -69 -147 15 -44 48 -62 116 -62 70 0
103 18 96 53 -5 24 -6 24 -34 10 -33 -16 -70 -14 -77 5 -2 8 8 12 33 12 43 0
85 36 85 74 0 52 -82 82 -150 55z"/>
<path d="M1330 1781 c0 -27 70 -196 82 -199 8 -2 27 15 43 38 15 22 32 40 36
40 5 0 21 -18 35 -40 15 -23 34 -40 42 -38 13 3 36 60 77 189 6 17 1 19 -34
19 -36 0 -40 -3 -46 -30 -8 -38 -15 -38 -40 0 -11 16 -23 30 -27 30 -4 0 -16
-13 -28 -30 -12 -16 -25 -30 -30 -30 -5 0 -11 14 -15 30 -6 28 -10 30 -51 30
-24 0 -44 -4 -44 -9z"/>
<path d="M3505 539 c124 -13 1050 -22 1400 -13 l340 9 -450 6 c-628 9 -1375 8
-1290 -2z"/>
<path d="M1030 343 c-398 -7 -961 -26 -995 -34 -23 -5 254 -6 660 -4 385 3
1103 5 1595 6 492 0 884 4 870 9 -51 17 -1584 33 -2130 23z"/>
<path d="M2160 29 c-669 -21 -530 -28 489 -23 563 2 1281 5 1595 6 366 1 524
4 441 9 -214 12 -2207 18 -2525 8z"/>
</g>
</svg>
